<?xml version="1.0" standalone="no"?>
<!DOCTYPE svg PUBLIC "-//W3C//DTD SVG 20010904//EN"
 "http://www.w3.org/TR/2001/REC-SVG-20010904/DTD/svg10.dtd">
<svg version="1.0" xmlns="http://www.w3.org/2000/svg"
 width="150.000000pt" height="133.500000pt" viewBox="0 0 100.000000 89.000000"
 preserveAspectRatio="xMidYMid meet">
<g transform="translate(0.000000,89.000000) scale(0.100000,-0.100000)"
fill="#fd3b00" stroke="white" stroke-width="20" stroke-linecap="round">
<path d="M74 806 c10 -76 58 -206 117 -311 94 -171 226 -304 404 -410 133 -79
124 -79 189 12 105 149 189 347 198 468 l3 39 -53 8 c-49 7 -54 6 -97 -27 -25
-19 -65 -40 -88 -46 -53 -14 -142 -8 -184 13 -20 10 -33 12 -33 6 0 -21 42
-78 82 -113 23 -19 39 -37 36 -41 -9 -9 -136 45 -212 90 -80 48 -238 193 -303
280 -66 87 -66 88 -59 32z"/>
</g>
</svg>
